<svg width="100" height="100" viewBox="0 0 100 100" fill="none" xmlns="http://www.w3.org/2000/svg">
<g clip-path="url(#clip0_7288_67586)">
<path d="M76.6762 82.9695C71.1343 88.4791 66.1974 93.1337 59.4132 96.2152C55.4282 98.0262 51.298 99.2241 46.9258 99.6032C45.6029 99.7202 44.3041 100.043 42.9489 99.9945C38.6493 99.8493 34.4828 99.0547 30.4615 97.518C25.3714 95.5739 20.9265 92.6133 17.2884 88.588C12.3556 83.1228 9.2055 76.6734 7.47114 69.5343C6.27322 64.6014 5.50687 59.6282 5.3415 54.526C5.26084 51.997 4.8333 49.4399 5.07127 46.923C5.47461 42.6799 5.47864 38.4166 6.11188 34.1775C6.71689 30.1441 7.49534 26.1591 8.71746 22.2951C10.1977 17.6244 12.3636 13.2885 15.4532 9.38421C19.1196 4.74984 23.8225 2.04343 29.441 0.595442C33.3212 -0.40484 37.0682 -0.0700685 40.8556 1.04315C46.6314 2.74121 52.1128 5.27418 57.8846 6.96014C63.132 8.49283 68.4198 9.70688 73.9294 10.1143C76.5713 10.3079 79.2575 10.0901 81.8954 10.7596C86.4692 11.9172 89.7686 14.5268 91.9385 18.7094C93.8826 22.4565 94.8022 26.4172 95.0967 30.6079C95.2096 32.1971 95.5363 33.7863 95.4395 35.3916C94.9152 43.894 93.6003 50.4442 90.1638 60.1082C86.7274 69.7722 82.2261 77.4558 76.6842 82.9655L76.6762 82.9695Z" fill="#FAE6E6"/>
<path d="M71.363 47.8551C75.9369 49.533 79.6154 52.2999 82.0072 56.6156C84.6168 61.3226 85.0564 66.2675 83.4995 71.4021C83.3463 71.9103 82.6202 74.4755 79.7444 78.041C76.8686 81.6065 72.9845 83.2159 69.8182 83.9096C58.4481 86.4023 47.6265 78.1177 47.1304 66.4813C47.1183 66.2151 47.082 65.9449 47.0578 65.6787C46.1462 63.8556 46.8803 62.1172 47.3159 60.3586C50.2401 51.227 58.1738 45.8424 67.6805 46.5846C68.9914 46.6854 70.3748 46.754 71.3711 47.851L71.363 47.8551Z" fill="#D55E60"/>
<path d="M71.3631 47.8548C64.829 46.1608 58.8636 47.2014 53.6081 51.5736C50.7928 53.917 48.9939 56.942 47.8202 60.3744C46.9328 60.5519 46.4771 59.8783 45.9729 59.3822C43.9118 57.3655 41.8548 55.3408 39.8542 53.2636C37.8416 51.1783 37.7246 49.4076 39.6889 47.2538C45.0129 41.4054 50.0063 35.2545 55.8103 29.8537C57.7786 28.0226 59.9567 26.4576 62.2557 25.058C63.3972 24.3602 64.6233 23.7875 65.5631 22.7953C69.6409 20.7383 74.009 19.7783 78.5305 19.3992C80.047 19.2741 80.5956 19.9356 80.5068 21.4078C80.168 26.9255 78.5103 32.0681 76.2193 37.0493C75.6587 38.2634 74.9004 39.3887 74.6382 40.3002C74.4124 41.4336 75.3764 41.7724 75.207 42.5186C73.9284 44.2973 72.6498 46.0761 71.3712 47.8548H71.3631Z" fill="#EFB2B3"/>
<path d="M75.1979 42.5189C74.601 42.1196 74.0041 41.7203 73.3265 41.2645C77.134 34.674 79.7275 27.7527 80.034 19.8875C74.9479 20.0932 70.2046 21.154 65.7033 23.2837C62.2628 25.0946 58.8466 26.9419 55.644 29.1643C50.9008 32.4516 47.1618 36.7673 43.3785 41.0346C41.5554 43.0917 39.7605 45.1769 37.8971 47.1977C37.0823 48.081 36.2232 48.932 35.711 50.255C37.8608 53.1429 41.0149 55.2362 42.9832 58.112C42.7815 59.2777 42.3298 59.8746 41.4263 60.0682C40.9141 60.4837 40.4018 60.8991 39.7283 61.4436C37.8406 59.556 35.957 57.6764 34.0734 55.7969C32.9804 54.7038 31.8833 53.6148 30.7943 52.5177C29.1487 50.8519 29.1083 50.6018 30.1328 48.3875C27.2651 47.964 24.4336 47.5123 21.5941 47.1372C20.5172 46.996 19.6056 46.7015 19.2588 45.5762C18.9159 44.463 19.4524 43.6684 20.2429 42.9223C26.4181 37.1101 33.6903 33.7261 42.1483 32.9436C42.8178 32.8831 43.4833 32.8307 44.5845 32.7379C44.7135 32.5564 44.9797 32.0684 45.3508 31.6892C53.946 22.9126 64.2634 17.4836 76.4765 15.7936C78.1988 15.5557 79.9614 15.5557 81.7078 15.5557C83.7608 15.5557 84.3255 16.1566 84.3618 18.2137C84.4707 24.2799 83.1236 30.0638 80.885 35.6581C79.8162 38.3323 78.5699 40.9217 76.9847 43.37C76.2507 43.2974 75.7989 42.7367 75.1979 42.5189Z" fill="#D55E60"/>
<path d="M38.4665 70.6477C38.3455 73.6646 37.1355 76.3468 34.2839 78.0086C29.3228 80.8925 23.8656 82.5704 18.4125 84.1999C16.4643 84.7807 15.1131 83.4335 15.6899 81.4935C17.2871 76.1008 18.961 70.7162 21.7763 65.7995C23.789 62.2864 27.9071 60.7416 31.8719 61.8307C35.8045 62.9116 38.4463 66.3561 38.4705 70.6517L38.4665 70.6477Z" fill="#D55E60"/>
<path d="M41.4267 60.0724C41.8381 59.5562 42.2495 59.0439 42.7133 58.4591C39.9585 55.7809 37.2239 53.1269 34.3965 50.3802C38.1919 46.1371 41.8099 42.1924 45.3068 38.1469C48.2189 34.783 51.3125 31.6289 54.9628 29.0677C58.3105 26.7203 62.6948 24.3083 66.8169 22.7837C64.9575 23.9574 63.804 24.7157 62.8037 25.3126C57.3828 28.5595 53.0671 33.0084 48.9893 37.7315C47.7672 39.1472 46.4079 40.4338 45.2262 41.902C43.6773 43.8259 41.9228 45.5885 40.2046 47.3713C39.4786 48.1255 39.1478 49.0613 38.7082 49.876C38.7727 51.3361 39.5512 52.288 40.495 53.1955C42.9634 55.5671 45.3875 57.9791 47.8277 60.3749C47.4163 62.1214 47.0976 63.88 47.0573 65.6829C45.1011 63.8961 43.2377 62.0165 41.4348 60.0724H41.4267Z" fill="#FEFEFE"/>
<path d="M62.4527 51.9042C68.7206 50.0086 76.6987 53.4611 79.2801 61.0036C81.0749 66.2389 80.115 71.1234 76.4204 75.2455C72.6734 79.4241 67.9019 80.8479 62.3882 79.6419C62.2672 79.6177 62.1664 79.4967 62.0575 79.4241C53.5389 74.0436 52.1151 61.2537 59.9198 53.5095C60.6579 52.7755 61.6783 52.5496 62.4487 51.9042H62.4527Z" fill="#FAE6E6"/>
<path d="M63.4252 51.6543C61.8199 52.7836 59.1579 54.9052 57.9318 56.8695C56.8064 58.6684 56.1006 60.5641 55.661 62.5727C54.6405 67.2595 55.8465 71.5026 58.4642 75.415C59.4725 76.9235 61.2391 78.3917 62.3887 79.642C57.4679 78.7184 52.773 73.963 51.6719 68.6188C50.2118 61.5442 54.3945 54.3244 61.2714 52.0818C61.6465 51.9608 62.7678 51.7672 63.4252 51.6583V51.6543Z" fill="#FEFEFE"/>
<path d="M71.806 35.1539C71.8262 39.2236 68.7608 42.3213 64.7113 42.3253C60.6537 42.3334 57.5681 39.2478 57.5762 35.1902C57.5802 31.2012 60.5811 28.1802 64.5701 28.1439C68.7043 28.1076 71.7858 31.0923 71.806 35.1539Z" fill="#D55E60"/>
<path d="M34.8486 38.8444C36.1231 38.3483 37.8696 37.7957 39.8177 37.8038C37.7324 40.1553 35.8488 42.2768 33.937 44.4307C32.2389 44.4307 30.6216 44.0919 28.9961 43.8015C29.3833 41.817 30.4844 40.6272 32.0211 39.9859C32.9327 39.6067 33.578 39.3365 34.8526 38.8404L34.8486 38.8444Z" fill="#EFB2B3"/>
<path d="M34.9859 38.792C34.1227 39.6108 32.7635 40.4578 31.7148 41.3895C30.7952 42.2083 30.1055 42.781 28.9923 43.8055C28.1573 43.6764 26.4189 43.3255 26.4189 43.3255C29.1576 41.3895 32.0294 39.7358 34.9818 38.792H34.9859Z" fill="#FEFEFE"/>
<path d="M25.7012 77.2062C24.8179 77.545 23.1965 78.2428 21.8413 78.6744C21.4581 78.7954 21.1112 78.4163 21.2564 78.0411C21.3855 77.7144 21.5146 77.3797 21.5751 77.2022C22.6278 74.161 23.6886 71.1198 25.2616 68.3005C26.4877 66.1023 28.2624 65.3763 30.6058 66.0136C30.8438 66.4209 30.6825 66.8081 30.4889 67.151C29.053 69.6678 28.093 72.3904 27.0766 75.0887C26.7902 75.855 26.8023 76.7827 25.7012 77.2062Z" fill="#FEFEFE"/>
<path d="M25.7012 77.2063C26.77 74.4314 27.7219 71.4426 29.0328 68.7685C29.4966 67.8206 30.0774 66.9333 30.6058 66.0137C32.7879 66.3888 33.8123 67.9174 34.1229 69.8938C34.4173 71.7653 33.6591 73.3706 32.0175 74.3628C30.0653 75.5446 28.0123 76.436 25.7012 77.2063Z" fill="#EFB2B3"/>
<path d="M73.7708 62.1775C70.7336 65.4526 67.7852 68.6592 64.7965 71.8294C63.4816 73.221 62.5902 73.2734 61.1463 72.0795C59.6015 70.805 58.1091 69.4659 56.4756 68.0542C57.4154 66.9652 58.2704 65.9689 59.2425 64.8396C60.4081 65.8035 61.5214 66.7312 62.7274 67.7275C65.341 64.9243 67.9425 62.1332 70.6409 59.2412C71.7299 60.2617 72.7342 61.2014 73.7748 62.1775H73.7708Z" fill="#D55E60"/>
<path d="M66.8135 37.0053C65.4422 38.1226 64.3572 38.3121 63.2077 37.6386C62.2356 37.0699 61.675 35.8195 61.9049 34.7023C62.163 33.4559 62.9213 32.6694 64.1717 32.4355C65.2244 32.2419 66.1601 32.4839 66.8135 33.4196C66.5957 34.6135 66.5957 35.8114 66.8135 37.0053Z" fill="#FEFEFE"/>
<path d="M66.8127 37.0051C65.8124 35.6701 65.8124 34.7505 66.8127 33.4194C67.8332 34.6133 67.817 35.8112 66.8127 37.0051Z" fill="#FEFEFE"/>
<path d="M23.4118 19.6796C25.7508 19.6796 27.6469 17.7835 27.6469 15.4445C27.6469 13.1056 25.7508 11.2095 23.4118 11.2095C21.0729 11.2095 19.1768 13.1056 19.1768 15.4445C19.1768 17.7835 21.0729 19.6796 23.4118 19.6796Z" fill="#E38688"/>
<path d="M23.4127 16.7956C24.159 16.7956 24.7639 16.1907 24.7639 15.4444C24.7639 14.6982 24.159 14.0933 23.4127 14.0933C22.6665 14.0933 22.0615 14.6982 22.0615 15.4444C22.0615 16.1907 22.6665 16.7956 23.4127 16.7956Z" fill="#FAE6E6"/>
</g>
<defs>
<clipPath id="clip0_7288_67586">
<rect width="100" height="100" fill="white"/>
</clipPath>
</defs>
</svg>
