<svg width="48" height="48" viewBox="0 0 48 48" fill="none" xmlns="http://www.w3.org/2000/svg">
<g clip-path="url(#clip0_7295_55792)">
<path d="M38.1553 16.2349C38.294 16.5083 38.4187 16.854 38.4729 16.9947C39.3675 19.3366 41.1305 20.9267 43.1065 22.3299C43.79 22.8163 44.5619 23.1762 45.171 23.7692C46.7872 25.3452 47.6436 27.3072 47.9531 29.5023C48.51 33.4584 47.5229 37.0366 45.0946 40.1927C43.3839 42.416 41.1506 43.9799 38.5855 45.1056C36.4889 46.0263 34.3399 46.754 32.0865 47.154C30.9306 47.3591 29.7727 47.5219 28.5927 47.5641C27.6801 47.5963 26.7775 47.6083 25.8628 47.5762C23.535 47.4938 21.2695 47.0937 19.0361 46.4766C16.8309 45.8675 14.7001 45.0453 12.6838 43.9658C10.9088 43.013 9.1999 41.7334 7.33324 39.8667C5.46657 38.0001 4.48618 36.5461 3.41473 34.164C2.5242 32.186 1.80656 30.1416 1.28591 28.0308C0.875824 26.3664 0.56223 24.6878 0.335076 22.9852C0.0878187 21.1197 0.0636961 19.2502 0.146115 17.3867C0.302912 13.8166 1.06881 10.3771 2.99862 7.31754C4.34546 5.18269 6.21497 3.54034 8.43626 2.32215C10.541 1.16627 12.8045 0.462695 15.1785 0.193325C17.3154 -0.0479008 19.4603 -0.0117168 21.6052 0.263683C24.0416 0.575267 26.4056 1.15823 28.7274 1.93015C30.7979 2.61765 32.77 3.52426 34.4364 4.96357C36.0366 6.3466 36.8346 8.1759 37.1482 10.2303C37.305 11.2596 37.496 12.2888 37.494 13.3361C36.7582 13.117 36.0064 13.2457 35.2606 13.2356C34.9289 13.2316 34.7922 13.1472 34.7038 12.8135C33.8615 9.62728 31.2583 7.61907 27.9655 7.60902C25.3784 7.60098 22.7892 7.60902 20.2021 7.605C19.6734 7.605 19.1527 7.65727 18.6421 7.77587C15.7736 8.44125 13.7995 10.6002 13.3372 13.6176C13.2849 13.9653 13.1824 14.0437 12.8607 14.0256C12.3944 13.9995 11.924 14.0156 11.4556 14.0196C10.5751 14.0276 10.0887 14.4759 10.0806 15.3624C10.0625 17.4068 10.0625 19.4492 10.0806 21.4936C10.0887 22.368 10.5389 22.8163 11.4013 22.8324C12.3944 22.8525 13.3894 22.8525 14.3825 22.8324C15.2529 22.8163 15.6791 22.3781 15.7012 21.4996C15.7273 20.4503 15.7454 19.401 15.7494 18.3516C15.7535 16.9827 15.7112 15.6137 15.7394 14.2468C15.7836 11.9993 17.6089 10.1097 19.8422 10.0715C22.7108 10.0233 25.5794 10.0213 28.448 10.0756C30.6532 10.1178 32.4724 12.13 32.4604 14.3332C32.4483 16.452 32.4041 18.5687 32.4986 20.6875C32.5388 21.5981 32.9549 22.0163 33.8655 22.0243C34.746 22.0323 35.6285 22.0263 36.509 22.0243C37.7412 22.0243 38.1212 21.6444 38.1292 20.4201C38.1372 19.1839 38.1433 17.4712 38.1553 16.2349ZM19.0402 24.9793C16.3746 25.896 14.2277 27.7635 12.915 30.2019C11.731 32.4011 11.5742 34.7651 11.7149 37.1814C11.8436 39.4026 13.7432 41.2319 15.9645 41.236C21.366 41.25 26.7674 41.248 32.1689 41.236C34.1771 41.2319 35.8918 39.8509 36.3723 37.897C36.6175 36.8999 36.521 35.8807 36.4889 34.8736C36.3803 31.5749 34.9953 28.8952 32.4644 26.7966C31.4834 25.9844 30.3637 25.4095 29.1536 24.9652C32.784 21.5157 32.2131 16.4902 29.4209 13.7844C26.5403 10.9922 22.0555 10.9078 19.012 13.5653C16.3002 15.9333 15.084 21.174 19.0422 24.9773L19.0402 24.9793Z" fill="#F3F7FF"/>
<path d="M38.1657 16.7133C38.1537 17.9496 38.1376 19.1838 38.1295 20.4201C38.1215 21.6423 37.7416 22.0223 36.5093 22.0243C35.6288 22.0243 34.7463 22.0303 33.8659 22.0243C32.9552 22.0162 32.5391 21.5981 32.4989 20.6875C32.4044 18.5707 32.4507 16.452 32.4607 14.3332C32.4728 12.13 30.6555 10.1178 28.4483 10.0755C25.5797 10.0213 22.7112 10.0233 19.8426 10.0715C17.6092 10.1077 15.7819 11.9993 15.7397 14.2467C15.7136 15.6137 15.7538 16.9827 15.7498 18.3516C15.7457 19.4009 15.7297 20.4503 15.7015 21.4996C15.6794 22.3781 15.2553 22.8163 14.3828 22.8324C13.3898 22.8525 12.3947 22.8525 11.4017 22.8324C10.5393 22.8143 10.089 22.368 10.081 21.4936C10.0629 19.4492 10.0629 17.4068 10.081 15.3624C10.089 14.4759 10.5755 14.0276 11.4559 14.0196C11.9243 14.0156 12.3947 13.9995 12.8611 14.0256C13.1827 14.0437 13.2832 13.9653 13.3375 13.6175C13.7999 10.6002 15.7739 8.43922 18.6425 7.77585C19.1531 7.65725 19.6757 7.60498 20.2024 7.60498C22.7896 7.609 25.3787 7.60096 27.9659 7.609C31.2586 7.62106 33.8618 9.62726 34.7041 12.8135C34.7926 13.1492 34.9293 13.2316 35.2609 13.2356C36.0047 13.2457 36.7586 13.119 37.4943 13.3361C37.9828 13.6718 38.1356 14.1543 38.1315 14.7232C38.1255 15.3865 38.1516 16.0499 38.1637 16.7153L38.1657 16.7133ZM34.9092 17.6118C34.9092 18.1526 34.9273 18.6954 34.9031 19.2341C34.8891 19.5618 35.0137 19.6422 35.3192 19.6381C35.6047 19.6341 35.7112 19.5618 35.7072 19.2602C35.6911 18.1787 35.6891 17.0952 35.7072 16.0137C35.7132 15.6881 35.5967 15.6117 35.2891 15.6036C34.9353 15.5936 34.8971 15.7604 34.9051 16.0439C34.9212 16.5665 34.9092 17.0892 34.9092 17.6118ZM13.2973 18.4561C13.2973 17.9114 13.2792 17.3686 13.3033 16.8259C13.3174 16.5022 13.2048 16.4057 12.8892 16.4097C12.6018 16.4158 12.4952 16.4942 12.4992 16.7957C12.5133 17.8832 12.5153 18.9708 12.4992 20.0583C12.4952 20.3638 12.6038 20.4302 12.8872 20.4342C13.1968 20.4382 13.3214 20.3618 13.3033 20.0301C13.2772 19.5055 13.2973 18.9808 13.2973 18.4561Z" fill="#0156AC"/>
<path d="M19.04 24.9813C15.0819 21.1779 16.298 15.9373 19.0098 13.5693C22.0533 10.9097 26.5381 10.9962 29.4187 13.7884C32.2109 16.4941 32.7818 21.5177 29.1514 24.9692C30.3615 25.4135 31.4812 25.9884 32.4622 26.8005C34.9931 28.8992 36.3801 31.5788 36.4867 34.8776C36.5188 35.8847 36.6153 36.9039 36.3701 37.9009C35.8896 39.8549 34.1749 41.2339 32.1667 41.2399C26.7652 41.252 21.3638 41.254 15.9623 41.2399C13.741 41.2339 11.8414 39.4046 11.7127 37.1853C11.572 34.769 11.7308 32.405 12.9128 30.2058C14.2235 27.7674 16.3724 25.8999 19.038 24.9833L19.04 24.9813ZM18.3605 27.9685C17.2589 28.477 16.4388 29.3133 15.7191 30.2581C14.1551 32.3145 13.9139 34.6946 14.125 37.1511C14.2114 38.1703 15.0859 38.8096 16.1292 38.7955C16.3523 38.8096 16.5754 38.8377 16.7986 38.8377C19.9305 38.8397 23.0624 38.8377 26.1943 38.8377C28.1081 38.8377 30.0198 38.8478 31.9335 38.8337C33.2884 38.8236 34.1005 37.9974 34.1086 36.6506C34.1126 36.0515 34.1247 35.4505 34.0985 34.8514C33.9277 30.8511 30.9043 27.486 26.9361 26.9392C25.1852 26.698 23.4142 26.8025 21.6573 26.8809C20.5718 26.9312 19.5204 27.2428 18.5776 27.8338C18.4892 27.8901 18.449 27.9142 18.3585 27.9664L18.3605 27.9685ZM21.9608 23.9199C22.005 23.952 22.0432 23.9983 22.0935 24.0164C24.0374 24.726 25.8707 24.537 27.4628 23.1741C29.087 21.783 29.6378 19.9698 29.1212 17.9013C28.3493 14.8216 24.8133 13.125 22.0774 14.4739C19.9305 15.2639 18.5274 17.7726 18.9756 20.0824C19.3194 21.8574 20.2582 23.1922 21.9628 23.9199H21.9608Z" fill="#0156AC"/>
<path d="M34.9088 17.6122C34.9088 17.0895 34.9188 16.5668 34.9047 16.0442C34.8967 15.7587 34.9349 15.5939 35.2887 15.604C35.5963 15.612 35.7129 15.6884 35.7068 16.014C35.6887 17.0955 35.6907 18.179 35.7068 19.2605C35.7108 19.5621 35.6043 19.6344 35.3189 19.6385C35.0113 19.6425 34.8867 19.5621 34.9027 19.2344C34.9269 18.6937 34.9088 18.1529 34.9088 17.6122Z" fill="#75A4FE"/>
<path d="M13.2952 18.4583C13.2952 18.983 13.2771 19.5096 13.3013 20.0323C13.3173 20.364 13.1927 20.4404 12.8852 20.4363C12.6017 20.4323 12.4932 20.364 12.4972 20.0604C12.5133 18.9729 12.5133 17.8854 12.4972 16.7978C12.4932 16.4983 12.5997 16.4179 12.8872 16.4119C13.2048 16.4059 13.3173 16.5023 13.3013 16.828C13.2771 17.3708 13.2952 17.9155 13.2952 18.4583Z" fill="#75A4FE"/>
<path d="M18.5825 27.8381C19.5253 27.2471 20.5766 26.9335 21.6621 26.8853C23.419 26.8049 25.1901 26.7004 26.941 26.9436C30.9091 27.4904 33.9325 30.8555 34.1034 34.8558C34.1295 35.4549 34.1174 36.0559 34.1134 36.655C34.1054 38.0018 33.2912 38.83 31.9384 38.8381C30.0246 38.8521 28.1129 38.8421 26.1992 38.8421C23.0673 38.8421 19.9353 38.8421 16.8034 38.8421C16.5803 38.8421 16.3571 38.8139 16.134 38.7999C16.0496 38.5526 15.9511 38.3114 15.8847 38.0601C15.5591 36.8299 15.6676 35.5896 15.7561 34.3372C15.8968 32.3571 16.6064 30.6082 17.6879 28.98C17.911 28.6422 18.2548 28.3849 18.3674 27.9708C18.4699 27.9125 18.5423 27.8683 18.5865 27.8381H18.5825Z" fill="#75A4FE"/>
<path d="M22.0778 14.4738C24.8117 13.125 28.3497 14.8216 29.1216 17.9013C29.6382 19.9678 29.0875 21.783 27.4632 23.1741C25.8731 24.537 24.0398 24.726 22.0939 24.0163C22.0457 23.9983 22.0054 23.952 21.9612 23.9199C21.7904 23.6786 21.8285 23.5017 21.714 23.3168C20.4455 21.2885 20.1822 19.1376 20.8757 16.8499C21.139 15.9835 21.6758 15.2659 22.0758 14.4738H22.0778Z" fill="#F3F7FF"/>
<path d="M18.8189 27.6953C18.3947 28.1898 17.9083 28.6381 17.6831 28.9758C16.6036 30.6061 15.892 32.355 15.7513 34.3331C15.6628 35.5854 15.5543 36.8257 15.8799 38.056C15.9463 38.3073 16.0448 38.5485 16.1292 38.7957C15.0859 38.8098 14.2135 38.1706 14.125 37.1514C13.916 34.6949 14.1572 32.3148 15.7191 30.2583C16.4388 29.3135 17.462 28.2542 18.8149 27.6953H18.8189Z" fill="#FEFEFE"/>
<path d="M22.0778 14.4742C21.6777 15.2662 21.141 15.9839 20.8777 16.8503C20.1821 19.1379 20.4475 21.2888 21.7159 23.3171C21.8305 23.5001 21.9572 23.7493 22.0959 24.0147C20.3932 23.287 19.3218 21.8557 18.978 20.0807C18.5297 17.7709 19.9329 15.2642 22.0798 14.4722L22.0778 14.4742Z" fill="#FEFEFE"/>
<path d="M47.8204 7.86627L46.8311 6.87695L44.8354 8.87265L45.8247 9.86197L47.8204 7.86627Z" fill="#75A4FE"/>
<path d="M40.9462 9.86188L41.9355 8.87256L39.9398 6.87686L38.9505 7.86618L40.9462 9.86188Z" fill="#75A4FE"/>
<path d="M46.832 15.7471L47.8213 14.7578L45.8256 12.7621L44.8363 13.7514L46.832 15.7471Z" fill="#75A4FE"/>
</g>
<defs>
<clipPath id="clip0_7295_55792">
<rect width="48" height="48" fill="white"/>
</clipPath>
</defs>
</svg>
